<?xml version="1.0" encoding="UTF-8"?>
<svg version="1.1" xmlns="http://www.w3.org/2000/svg" width="1024" height="1536">
<path d="M0 0 C337.92 0 675.84 0 1024 0 C1024 506.88 1024 1013.76 1024 1536 C686.08 1536 348.16 1536 0 1536 C0 1029.12 0 522.24 0 0 Z " fill="#FDFCF9" transform="translate(0,0)"/>
<path d="M0 0 C2.31041343 1.78590402 4.14215619 3.41299229 6.125 5.50390625 C6.95088623 6.3389695 6.95088623 6.3389695 7.79345703 7.19090271 C9.54354761 8.96780349 11.2714509 10.76466409 13 12.5625 C14.16011213 13.7441617 15.32155975 14.92451383 16.484375 16.10351562 C22.18187808 21.90552181 27.74947951 27.78673398 33 34 C33.88926729 35.03259999 34.77858757 36.06515435 35.66796875 37.09765625 C95.81731468 107.87804936 143.07391988 195.88337947 135.57421875 291.36328125 C130.26176035 344.84202911 102.98467196 398.49512121 61.31640625 433.1171875 C60.16978516 434.04917969 60.16978516 434.04917969 59 435 C57.8626613 435.96020366 56.72601337 436.92122579 55.58984375 437.8828125 C23.18468342 465.05234768 -20.35364785 491.02146057 -64.06640625 490.203125 C-66 490 -66 490 -68 489 C-68.03758423 490.10118164 -68.03758423 490.10118164 -68.07592773 491.22460938 C-68.19415873 494.64982298 -68.31582385 498.07490711 -68.4375 501.5 C-68.47681641 502.65371094 -68.51613281 503.80742188 -68.55664062 504.99609375 C-68.77912868 511.19153039 -69.07982048 517.36964438 -69.50390625 523.5546875 C-70.2367702 534.50697418 -70.34940898 545.479011 -70.55224609 556.45117188 C-71.16561374 588.88650336 -71.16561374 588.88650336 -74.1875 592.375 C-77.58190044 594.33620914 -79.15082287 594.8019119 -83 594 C-86.53501998 591.27709681 -87.86306584 589.81062849 -88.61523438 585.35791016 C-88.63453442 583.91840583 -88.62539557 582.47834834 -88.59375 581.0390625 C-88.59544189 579.84129181 -88.59544189 579.84129181 -88.59716797 578.61932373 C-88.59157354 575.95364278 -88.54693362 573.29025184 -88.5 570.625 C-88.48435331 568.74430886 -88.46939502 566.86361189 -88.45507812 564.98291016 C-88.24409197 546.35758571 -87.19267362 527.75947558 -86.06835938 509.17041016 C-85.99931396 508.02840149 -85.93026855 506.88639282 -85.85913086 505.70977783 C-85.72835234 503.57526301 -85.59462506 501.4409258 -85.45727539 499.30682373 C-85.28475602 496.53846677 -85.13455773 493.77044127 -85 491 C-84.92907639 489.70888054 -84.92907639 489.70888054 -84.85671997 488.39167786 C-84.50895988 484.09152772 -84.50895988 484.09152772 -86.3604126 480.4319458 C-88.12020397 479.06708253 -89.92213058 478.00741572 -91.875 476.9375 C-93.26777713 476.09469211 -94.65840345 475.24831986 -96.046875 474.3984375 C-96.72814453 473.99206055 -97.40941406 473.58568359 -98.11132812 473.16699219 C-102.38856259 470.52413015 -106.15482637 467.2214683 -110 464 C-110.91136719 463.27296875 -111.82273437 462.5459375 -112.76171875 461.796875 C-120.16372208 455.76912325 -126.98150037 449.22935821 -133.75 442.5 C-135.06254761 441.20122925 -135.06254761 441.20122925 -136.40161133 439.8762207 C-142.3561638 433.89352496 -147.77480323 427.62598359 -153 421 C-153.58088379 420.2678125 -154.16176758 419.535625 -154.76025391 418.78125 C-177.67159217 389.6680854 -193.40742224 359.40228966 -201 323 C-201.18224121 322.13310547 -201.36448242 321.26621094 -201.55224609 320.37304688 C-206.24758944 296.91969007 -205.92149368 270.3734939 -201 247 C-200.82839355 246.17435547 -200.65678711 245.34871094 -200.47998047 244.49804688 C-187.97326704 186.24515106 -150.59786758 133.82194705 -108.625 92.65625 C-106.15628854 90.14006332 -103.86971574 87.47396698 -101.578125 84.796875 C-100.10213522 83.11629258 -98.6713234 81.48766149 -97 80 C-96.34 80 -95.68 80 -95 80 C-95 79.34 -95 78.68 -95 78 C-93.7421875 76.765625 -93.7421875 76.765625 -91.875 75.25 C-87.69090437 71.70617523 -83.84853614 67.89819137 -80 64 C-75.76205934 59.72134209 -71.51752459 55.53516509 -66.921875 51.63671875 C-64.57269346 49.63609463 -62.28832973 47.56989826 -60 45.5 C-56.37976277 42.23295665 -52.73016435 39.00479224 -49.05078125 35.8046875 C-46.73911203 33.77041859 -44.4646857 31.6977769 -42.1875 29.625 C-38.64839998 26.42347567 -35.02896894 23.36853937 -31.3125 20.375 C-27.54133205 17.3241675 -24.05730155 14.17852083 -20.6875 10.6953125 C-17.62306694 7.61669225 -14.33642364 4.77920649 -11 2 C-10.40574219 1.41734375 -9.81148437 0.8346875 -9.19921875 0.234375 C-5.82296194 -1.66064659 -3.70305482 -0.91073762 0 0 Z " fill="#B0CEB4" transform="translate(544,297)"/>
<path d="M0 0 C3.5625 0.5625 3.5625 0.5625 6.5625 2.5625 C9.18585046 6.49752569 8.40555022 9.15460622 7.5625 13.5625 C6.88847459 16.70841045 6.11501969 19.82212852 5.3125 22.9375 C5.12042969 23.70449219 4.92835938 24.47148437 4.73046875 25.26171875 C3.69541372 29.34335084 2.61176116 33.40842974 1.4621582 37.45922852 C-1.94598827 49.48185215 -4.9191702 61.57938228 -7.75 73.75 C-7.98672424 74.7629715 -8.22344849 75.77594299 -8.46734619 76.8196106 C-12.68061728 94.87701622 -16.5294231 112.99340039 -20.15255737 131.17744446 C-21.09265836 135.88509179 -22.06956492 140.58302662 -23.07421875 145.27734375 C-23.3180127 146.41888916 -23.56180664 147.56043457 -23.81298828 148.73657227 C-24.2562454 150.8017976 -24.70354036 152.86616238 -25.15576172 154.92944336 C-25.43637451 156.24440796 -25.43637451 156.24440796 -25.72265625 157.5859375 C-25.96834351 158.71394775 -25.96834351 158.71394775 -26.21899414 159.86474609 C-26.29110107 160.42500488 -26.36320801 160.98526367 -26.4375 161.5625 C-26.1075 161.8925 -25.7775 162.2225 -25.4375 162.5625 C-24.67179687 161.59763672 -24.67179687 161.59763672 -23.890625 160.61328125 C-3.26427827 134.97663398 21.30811093 113.26137574 51.5625 99.5625 C55.11029688 99.6206606 57.39883945 99.92436357 60.5 101.625 C62.30793093 104.92181522 62.45537705 107.99780764 61.5625 111.5625 C57.18310401 116.68959775 51.44764641 119.28249214 45.53588867 122.32250977 C38.37128089 126.06411493 31.97896833 130.67253018 25.5625 135.5625 C24.675625 136.22378906 23.78875 136.88507813 22.875 137.56640625 C-9.96223164 163.14540833 -34.02374897 198.21780034 -40 239.5 C-40.34178641 241.69246649 -40.68617531 243.8845289 -41.03320312 246.07617188 C-41.65288814 250.04981102 -42.26576806 254.02404582 -42.84594727 258.00366211 C-42.96092056 258.79018661 -43.07589386 259.57671112 -43.1943512 260.3870697 C-43.51155251 262.86021165 -43.51155251 262.86021165 -43.4375 266.5625 C-43.08300781 266.13582031 -42.72851562 265.70914062 -42.36328125 265.26953125 C-22.83811446 242.34046129 0.74670189 227.0168777 27.375 213.3125 C28.26340576 212.84634277 29.15181152 212.38018555 30.06713867 211.89990234 C35.34411027 209.25766763 40.54586861 207.11165519 46.5625 207.5625 C49.6875 209.5625 49.6875 209.5625 51.5625 212.5625 C51.75 216.0625 51.75 216.0625 50.5625 219.5625 C46.13419053 223.86780087 41.48184159 226.21482797 35.875 228.6875 C21.14724252 235.44089802 7.13854524 243.29350858 -5.4375 253.5625 C-5.97068848 253.995625 -6.50387695 254.42875 -7.05322266 254.875 C-22.49987542 267.47939704 -35.17340214 281.40918429 -45.4375 298.5625 C-46.18592163 299.59576416 -46.18592163 299.59576416 -46.94946289 300.64990234 C-48.95817013 304.58162957 -49.26280191 308.20955088 -49.68359375 312.56640625 C-49.82749542 313.9076783 -49.82749542 313.9076783 -49.9743042 315.27604675 C-50.28699054 318.22454614 -50.58149828 321.17453377 -50.875 324.125 C-51.08893798 326.19505546 -51.30354742 328.26504164 -51.51879883 330.33496094 C-52.17921237 336.74212925 -52.81084464 343.15195477 -53.4375 349.5625 C-53.53522705 350.55409119 -53.6329541 351.54568237 -53.73364258 352.56732178 C-57.12177028 386.96658864 -59.49982404 421.20894512 -60.09643555 455.77368164 C-60.60333571 484.45935114 -60.60333571 484.45935114 -63.625 487.9375 C-67.01940044 489.89870914 -68.58832287 490.3644119 -72.4375 489.5625 C-75.97251998 486.83959681 -77.30056584 485.37312849 -78.05273438 480.92041016 C-78.07197516 479.48090504 -78.06285631 478.04084921 -78.03125 476.6015625 C-78.03260452 475.80508804 -78.03395905 475.00861359 -78.03535461 474.18800354 C-78.03030297 471.52020898 -77.98558277 468.85484529 -77.9375 466.1875 C-77.91843254 464.27384865 -77.89980756 462.36019285 -77.8815918 460.4465332 C-77.21502287 408.26450853 -72.79875605 355.99064147 -65.96142578 304.27001953 C-64.41845873 292.50739665 -63.87548213 282.27098584 -66.5 270.625 C-66.72260498 269.62718506 -66.94520996 268.62937012 -67.17456055 267.60131836 C-70.81243687 252.00421819 -76.82219064 237.61169991 -84.4375 223.5625 C-85.00210938 222.51707031 -85.56671875 221.47164062 -86.1484375 220.39453125 C-92.58685332 208.95349656 -100.16751043 198.69715702 -109.09765625 189.08984375 C-118.07802129 179.38985013 -118.07802129 179.38985013 -119.1875 173.75 C-118.4375 170.5625 -118.4375 170.5625 -116.3125 168.125 C-112.77985438 166.2050839 -111.39406546 165.70912314 -107.4375 166.5625 C-101.55956013 170.53310836 -96.89890188 176.1116387 -92.4375 181.5625 C-91.82817627 182.30330811 -91.82817627 182.30330811 -91.20654297 183.05908203 C-81.59940424 194.80192107 -73.64461408 207.02054246 -66.5625 220.4375 C-66.09779297 221.31736572 -65.63308594 222.19723145 -65.15429688 223.10375977 C-58.4375 236.0739142 -58.4375 236.0739142 -58.4375 241.5625 C-57.7775 241.5625 -57.1175 241.5625 -56.4375 241.5625 C-56.48837769 239.66177734 -56.48837769 239.66177734 -56.5402832 237.72265625 C-56.5359024 232.35898847 -55.73285569 227.26928922 -54.79296875 222 C-54.62251541 221.00983887 -54.45206207 220.01967773 -54.27644348 218.99951172 C-53.73298873 215.85257453 -53.17917207 212.70756559 -52.625 209.5625 C-52.26429037 207.48319139 -51.90425884 205.40376502 -51.54492188 203.32421875 C-50.22597619 195.71064574 -48.90000817 188.09844554 -47.52172852 180.49536133 C-47.31287773 179.33611145 -47.31287773 179.33611145 -47.09980774 178.15344238 C-46.73251389 176.11975598 -46.36106615 174.08682097 -45.98925781 172.05395508 C-40.45644078 137.04297441 -61.7434292 99.6036062 -80.4375 71.5625 C-81.00811018 67.16065002 -80.94506062 65.26412792 -78.3125 61.625 C-75.4375 59.5625 -75.4375 59.5625 -72.4375 58.9375 C-67.04168035 60.06162909 -64.40233647 64.44991376 -61.4921875 68.8359375 C-60.42122815 70.52951252 -59.36192828 72.23049954 -58.3125 73.9375 C-57.74990479 74.85072021 -57.18730957 75.76394043 -56.60766602 76.70483398 C-52.5006033 83.50952035 -48.8162559 90.46212462 -45.375 97.625 C-44.93462402 98.53878418 -44.49424805 99.45256836 -44.04052734 100.39404297 C-40.97356647 106.95831138 -38.60114674 113.65133185 -36.4375 120.5625 C-32.57844666 104.91433107 -28.89029813 89.24260739 -25.4375 73.5 C-21.28355458 54.59351158 -16.75756449 35.79274305 -11.625 17.125 C-11.43010986 16.41520996 -11.23521973 15.70541992 -11.03442383 14.97412109 C-7.15334466 1.17054731 -7.15334466 1.17054731 0 0 Z " fill="#457659" transform="translate(533.4375,401.4375)"/>
<path d="M0 0 C1.32499512 0.01244751 1.32499512 0.01244751 2.67675781 0.02514648 C12.17153954 0.27154782 19.32660344 2.59280368 26.24575806 9.32080078 C32.50685888 16.37304185 33.88081452 23.83757955 33.7890625 33 C33.79384613 34.07193604 33.79862976 35.14387207 33.80355835 36.24829102 C33.80694036 38.50050333 33.79785799 40.75276589 33.77685547 43.00488281 C33.75006759 46.42886049 33.77666376 49.84956034 33.80859375 53.2734375 C33.80528935 55.47396548 33.79888251 57.67449145 33.7890625 59.875 C33.80424423 61.39105835 33.80424423 61.39105835 33.81973267 62.93774414 C33.68486326 71.22122507 31.23908348 77.54783347 26.0546875 84.0234375 C16.94936605 91.95164515 7.87978642 94.34858922 -4.06640625 93.8203125 C-12.41411403 92.98126085 -19.94868692 89.43995414 -25.875 83.4375 C-29.8286433 77.91618114 -32.948534 72.77790804 -33.08374023 65.88110352 C-33.10303085 64.95906631 -33.12232147 64.03702911 -33.14219666 63.08705139 C-33.20032465 58.84559298 -33.24928521 54.60430082 -33.2800293 50.36254883 C-33.30152237 48.13680422 -33.33552042 45.91114211 -33.38256836 43.68579102 C-33.89459773 19.22317803 -33.89459773 19.22317803 -26.875 10.4375 C-18.98104955 2.64758563 -10.9549652 -0.13230131 0 0 Z " fill="#174835" transform="translate(725.875,1076.5625)"/>
<path d="M0 0 C0.92929825 -0.00807175 1.8585965 -0.01614349 2.8160553 -0.02445984 C4.79247155 -0.03832692 6.76891201 -0.04903726 8.74536133 -0.05688477 C11.74152732 -0.07396996 14.73655288 -0.11781595 17.73242188 -0.16210938 C19.65493982 -0.17224737 21.57746714 -0.18075999 23.5 -0.1875 C24.3858226 -0.20500809 25.2716452 -0.22251617 26.18431091 -0.24055481 C33.85205283 -0.21437643 40.16022495 1.94387955 46.66015625 5.98828125 C53.54192149 13.06666835 55.28992405 19.86898465 55.1796875 29.58984375 C54.58572636 36.1164285 52.39937716 40.83850169 47.6171875 45.3359375 C45.4168982 47.08396505 43.19300146 48.69228591 40.84765625 50.23828125 C39.85765625 50.89828125 38.86765625 51.55828125 37.84765625 52.23828125 C38.52139282 53.63735718 38.52139282 53.63735718 39.20874023 55.06469727 C40.8826096 58.54711384 42.54382968 62.03544215 44.20141602 65.52563477 C44.91871452 67.03149302 45.63937176 68.53575638 46.36352539 70.03833008 C47.4076166 72.20627444 48.43924183 74.37978718 49.46875 76.5546875 C49.95316811 77.55043541 49.95316811 77.55043541 50.44737244 78.56629944 C50.89772606 79.52650246 50.89772606 79.52650246 51.35717773 80.50610352 C51.62143051 81.0590358 51.88568329 81.61196808 52.15794373 82.18165588 C53.13438153 85.09325556 53.41335581 88.19817819 53.84765625 91.23828125 C48.89765625 91.23828125 43.94765625 91.23828125 38.84765625 91.23828125 C34.64005119 82.96041136 30.69851032 74.61794816 26.97265625 66.11328125 C26.47507812 64.99179688 25.9775 63.8703125 25.46484375 62.71484375 C24.995625 61.6475 24.52640625 60.58015625 24.04296875 59.48046875 C23.62031738 58.51995605 23.19766602 57.55944336 22.76220703 56.56982422 C21.84765625 54.23828125 21.84765625 54.23828125 21.84765625 52.23828125 C16.56765625 52.23828125 11.28765625 52.23828125 5.84765625 52.23828125 C5.85551147 53.95712524 5.85551147 53.95712524 5.86352539 55.71069336 C5.88157342 59.94668807 5.89308753 64.18267937 5.90258789 68.41870117 C5.90762856 70.25497 5.91446102 72.09123479 5.9230957 73.92749023 C5.93517297 76.56104526 5.94088706 79.19454741 5.9453125 81.828125 C5.95047379 82.65416733 5.95563507 83.48020966 5.96095276 84.33128357 C5.9611483 86.30064493 5.90969777 88.26989739 5.84765625 90.23828125 C4.84765625 91.23828125 4.84765625 91.23828125 1.72265625 91.37109375 C0.44390625 91.36851563 -0.83484375 91.3659375 -2.15234375 91.36328125 C-3.43109375 91.36585937 -4.70984375 91.3684375 -6.02734375 91.37109375 C-9.15234375 91.23828125 -9.15234375 91.23828125 -10.15234375 90.23828125 C-10.25284589 87.47426717 -10.2885045 84.73520899 -10.28173828 81.97070312 C-10.2834906 81.10409561 -10.28524292 80.2374881 -10.28704834 79.34461975 C-10.291468 76.46540352 -10.28852847 73.58624816 -10.28515625 70.70703125 C-10.28582926 68.71545398 -10.28679925 66.72387679 -10.28805542 64.7322998 C-10.28953255 60.5524823 -10.28737736 56.37268612 -10.28271484 52.19287109 C-10.27701755 46.82225599 -10.28029648 41.45169085 -10.28628731 36.08107758 C-10.28989252 31.96685405 -10.28875452 27.85264246 -10.28615952 23.73841858 C-10.28549014 21.75757339 -10.28631905 19.77672713 -10.28863907 17.79588318 C-10.29116494 15.03251249 -10.28732593 12.26922391 -10.28173828 9.50585938 C-10.28376251 8.67880997 -10.28578674 7.85176056 -10.28787231 6.99964905 C-10.25651423 -1.32732175 -7.46311955 0.06098128 0 0 Z " fill="#194936" transform="translate(623.15234375,1077.76171875)"/>
<path d="M0 0 C2.05903494 -0.01647357 4.11801475 -0.04364818 6.17675781 -0.08203125 C9.1543529 -0.13725638 12.13060179 -0.15875194 15.10864258 -0.17333984 C16.01633896 -0.19600922 16.92403534 -0.21867859 17.85923767 -0.24203491 C25.87359265 -0.21598813 32.21033616 2.42037738 38.33129883 7.59619141 C44.1490029 14.51087782 46.12241629 19.45869428 45.92504883 28.53759766 C45.27560743 35.84381341 42.83499575 41.19015073 37.67504883 46.35009766 C32.41189093 50.35009766 32.41189093 50.35009766 28.67504883 50.35009766 C29.87752225 52.97557285 31.0802267 55.60094131 32.28344727 58.22607422 C33.295994 60.436986 34.30705785 62.6485775 35.31665039 64.86083984 C38.48824923 71.80674772 38.48824923 71.80674772 41.77661133 78.69775391 C42.3205957 79.82052734 42.86458008 80.94330078 43.42504883 82.10009766 C43.89426758 83.04369141 44.36348633 83.98728516 44.84692383 84.95947266 C45.67504883 87.35009766 45.67504883 87.35009766 44.67504883 91.35009766 C40.05504883 91.35009766 35.43504883 91.35009766 30.67504883 91.35009766 C24.27014559 78.86232542 18.41807919 66.15423092 12.67504883 53.35009766 C7.39504883 53.02009766 2.11504883 52.69009766 -3.32495117 52.35009766 C-3.31709595 54.06894165 -3.31709595 54.06894165 -3.30908203 55.82250977 C-3.291034 60.05850448 -3.27951989 64.29449577 -3.27001953 68.53051758 C-3.26497886 70.3667864 -3.2581464 72.2030512 -3.24951172 74.03930664 C-3.23743445 76.67286167 -3.23172036 79.30636382 -3.22729492 81.93994141 C-3.22213364 82.76598373 -3.21697235 83.59202606 -3.21165466 84.44309998 C-3.21145913 86.41246133 -3.26290966 88.38171379 -3.32495117 90.35009766 C-5.19739098 92.22253746 -8.26154635 91.52390157 -10.76245117 91.53759766 C-12.52395508 91.55886719 -12.52395508 91.55886719 -14.32104492 91.58056641 C-17.32495117 91.35009766 -17.32495117 91.35009766 -19.32495117 89.35009766 C-19.51833749 86.55409413 -19.58717608 83.85752241 -19.56787109 81.06079102 C-19.56976944 80.20379105 -19.57166779 79.34679108 -19.57362366 78.46382141 C-19.57733764 75.62243592 -19.56661922 72.78130429 -19.55541992 69.93994141 C-19.55422846 67.97221405 -19.55377489 66.00448612 -19.55403137 64.03675842 C-19.55246548 59.90996753 -19.54416713 55.78326325 -19.53076172 51.65649414 C-19.5137606 46.35428251 -19.50994763 41.05216607 -19.5107069 35.74993038 C-19.51043561 31.68631575 -19.50496112 27.62272212 -19.49770546 23.55911446 C-19.49451302 21.60339072 -19.49255005 19.6476646 -19.49181175 17.6919384 C-19.48965489 14.96458718 -19.48092524 12.23733902 -19.47021484 9.51000977 C-19.47066803 8.69388214 -19.47112122 7.87775452 -19.47158813 7.03689575 C-19.4111445 -3.43526704 -8.4857792 0.04969906 0 0 Z " fill="#1A4A37" transform="translate(202.324951171875,1077.64990234375)"/>
<path d="M0 0 C5.28 0 10.56 0 16 0 C19.68947164 4.08376631 21.88340139 7.27916203 24.1875 12.0625 C24.83819667 13.29414512 25.49503207 14.52256504 26.15771484 15.74780273 C27.50216771 18.2519965 28.81284692 20.76964106 30.09814453 23.3046875 C32.9150008 28.83150599 36.03914988 34.18302164 39.125 39.5625 C40.1290878 41.35463832 41.13176054 43.14757041 42.1328125 44.94140625 C45.00516381 50.00911054 48.00300023 55.00500038 51 60 C51.33 40.2 51.66 20.4 52 0 C57.28 0 62.56 0 68 0 C68 30.03 68 60.06 68 91 C62.39 91 56.78 91 51 91 C49.47572521 88.3579237 47.95146184 85.71584082 46.42724609 83.07373047 C45.08791514 80.75233304 43.74842563 78.43102792 42.40869141 76.10986328 C39.22340648 70.59066896 36.03933991 65.07079745 32.86347961 59.5461731 C31.85093218 57.78491261 30.83778613 56.02399782 29.82446289 54.26318359 C28.55293275 52.05325306 27.28253372 49.84267121 26.01342773 47.63134766 C25.42891846 46.6160498 24.84440918 45.60075195 24.2421875 44.5546875 C23.7354248 43.67280762 23.22866211 42.79092773 22.70654297 41.88232422 C20.53479331 38.21427322 18.27258369 34.60619143 16 31 C16.00222061 31.73693588 16.00444122 32.47387177 16.00672913 33.23313904 C16.02673203 40.16412769 16.04197413 47.09511204 16.05181217 54.02612209 C16.05703995 57.58977422 16.06413569 61.15340257 16.07543945 64.71704102 C16.08834176 68.81006097 16.09322906 72.9030558 16.09765625 76.99609375 C16.10281754 78.28148544 16.10797882 79.56687714 16.11329651 80.89122009 C16.11340981 82.66294334 16.11340981 82.66294334 16.11352539 84.47045898 C16.115746 85.51636703 16.11796661 86.56227509 16.12025452 87.63987732 C16 90 16 90 15 91 C10.05 91 5.1 91 0 91 C0 60.97 0 30.94 0 0 Z " fill="#184835" transform="translate(539,951)"/>
<path d="M0 0 C4.89579373 4.00657858 8.62584955 9.31504864 10.625 15.3125 C10.75479439 18.31853796 10.66863173 21.30191031 10.625 24.3125 C5.675 24.3125 0.725 24.3125 -4.375 24.3125 C-4.9628125 21.96125 -4.9628125 21.96125 -5.5625 19.5625 C-7.26759026 13.89487603 -9.51306621 11.90246321 -14.625 9.0625 C-21.23342656 7.26020185 -26.73715565 7.80477644 -32.71484375 11.16796875 C-35.96675155 13.40987224 -37.14713519 15.62890558 -38.375 19.3125 C-38.5085589 22.31361458 -38.58737964 25.29062413 -38.61328125 28.29296875 C-38.621353 29.17978836 -38.62942474 30.06660797 -38.63774109 30.9803009 C-38.65157181 32.85899914 -38.66229849 34.7377224 -38.67016602 36.61645508 C-38.68733175 39.47201049 -38.73122078 42.32639356 -38.77539062 45.18164062 C-38.78552233 47.01040819 -38.79403694 48.83918556 -38.80078125 50.66796875 C-38.81828934 51.51409225 -38.83579742 52.36021576 -38.85383606 53.23197937 C-38.83294966 59.01880606 -37.71789387 63.51393894 -34.375 68.3125 C-29.28276798 72.55602668 -24.80245373 72.93261102 -18.25390625 72.703125 C-13.35739918 72.03874141 -10.1813747 70.24163803 -6.765625 66.59375 C-4.94773264 63.61158949 -4.63614761 61.01363549 -4.1875 57.5625 C-4.02894531 56.39203125 -3.87039063 55.2215625 -3.70703125 54.015625 C-3.59746094 53.12359375 -3.48789062 52.2315625 -3.375 51.3125 C-4.66277344 51.32410156 -5.95054687 51.33570313 -7.27734375 51.34765625 C-8.95572772 51.3570327 -10.63411326 51.36613305 -12.3125 51.375 C-13.58770508 51.38756836 -13.58770508 51.38756836 -14.88867188 51.40039062 C-15.69755859 51.40361328 -16.50644531 51.40683594 -17.33984375 51.41015625 C-18.0887085 51.41539307 -18.83757324 51.42062988 -19.60913086 51.42602539 C-21.375 51.3125 -21.375 51.3125 -22.375 50.3125 C-22.375 46.3525 -22.375 42.3925 -22.375 38.3125 C-11.485 38.3125 -0.595 38.3125 10.625 38.3125 C10.7075 42.7675 10.79 47.2225 10.875 51.8125 C10.91141602 53.20146484 10.94783203 54.59042969 10.98535156 56.02148438 C11.05060639 63.3173946 10.58280289 68.13121234 6.625 74.3125 C6.08875 75.17875 5.5525 76.045 5 76.9375 C-2.1893497 84.1268497 -10.99486489 87.58889437 -21.0625 87.6875 C-31.72933009 87.61900528 -39.690354 84.98385507 -47.5 77.453125 C-54.32116066 69.66563325 -55.6838841 59.93202311 -55.7109375 49.9140625 C-55.7175943 49.03906097 -55.7242511 48.16405945 -55.73110962 47.26254272 C-55.74117755 45.42211999 -55.74592847 43.58166118 -55.74560547 41.74121094 C-55.7499775 38.95185216 -55.78635572 36.1640796 -55.82421875 33.375 C-55.90141607 21.27912749 -55.22824519 11.39145853 -46.57421875 2.13671875 C-33.00928132 -9.11519205 -14.57011822 -9.94424419 0 0 Z " fill="#184835" transform="translate(394.375,1082.6875)"/>
<path d="M0 0 C4.72792286 3.83604289 8.81020645 8.49311935 10.75 14.3125 C10.88281695 17.98356043 10.79323297 21.63769714 10.75 25.3125 C5.8 25.3125 0.85 25.3125 -4.25 25.3125 C-4.4975 23.930625 -4.745 22.54875 -5 21.125 C-5.9372618 16.956479 -7.07220973 14.30870225 -10.25 11.3125 C-16.23739756 8.30818527 -22.71556893 8.66976907 -29.25 9.3125 C-32.54101984 10.54517881 -34.64160865 12.0957173 -36.25 15.3125 C-36.3452699 16.78918337 -36.37985959 18.27025457 -36.375 19.75 C-36.37757813 20.53246094 -36.38015625 21.31492187 -36.3828125 22.12109375 C-36.33382548 24.49145347 -36.33382548 24.49145347 -35.25 27.3125 C-33.11673164 28.35223184 -33.11673164 28.35223184 -30.25 29.3125 C-29.01756556 29.86780379 -27.78885469 30.43139547 -26.5625 31 C-23.40743829 32.42640605 -20.22441153 33.71146207 -16.98046875 34.91796875 C6.41079283 43.63408566 6.41079283 43.63408566 11.75 54.3125 C12.98210017 71.96586962 12.98210017 71.96586962 7.75 78.3125 C1.25324799 85.48249056 -7.26850911 88.84933146 -16.78125 89.5859375 C-27.6902775 89.86510553 -37.2414461 88.4250052 -46.25 81.625 C-50.84219245 77.13587421 -53.92150541 71.64377205 -54.5546875 65.22265625 C-54.56147943 62.58399095 -54.41879932 59.94576936 -54.25 57.3125 C-49.3 57.3125 -44.35 57.3125 -39.25 57.3125 C-38.858125 59.024375 -38.46625 60.73625 -38.0625 62.5 C-36.72884445 67.37128647 -35.42479089 70.23110672 -31.25 73.3125 C-25.51245792 76.02724307 -19.23717557 76.3632719 -13.0859375 74.7421875 C-9.95577892 73.47680424 -7.29001899 72.03252532 -5.25 69.3125 C-4.03739123 65.67467368 -3.85455448 63.13514001 -4.25 59.3125 C-8.1772728 53.4215908 -14.88549742 51.78091295 -21.25 49.3125 C-24.50939906 48.02240837 -27.75596849 46.70319288 -31 45.375 C-31.79164551 45.06328857 -32.58329102 44.75157715 -33.39892578 44.43041992 C-41.38129462 41.15686431 -47.99779306 36.96647249 -52.25 29.3125 C-54.3496038 23.0136886 -54.46060109 14.99004343 -51.6875 8.875 C-47.48274837 1.89158383 -40.87023758 -2.17320841 -33.25 -4.6875 C-21.81330555 -7.02436179 -9.83546226 -6.82346815 0 0 Z " fill="#184835" transform="translate(474.25,954.6875)"/>
<path d="M0 0 C7.46017829 4.84309962 11.12507469 9.82053658 13.9375 18.2578125 C14.06729439 21.26385046 13.98113173 24.24722281 13.9375 27.2578125 C8.9875 27.2578125 4.0375 27.2578125 -1.0625 27.2578125 C-1.289375 25.8759375 -1.51625 24.4940625 -1.75 23.0703125 C-2.91654549 17.80844776 -5.23113534 15.06248862 -9.796875 12.15234375 C-15.14084561 10.04239674 -22.92714904 10.03574449 -28.27734375 12.12109375 C-30.06389073 13.32231727 -31.54239438 14.73770688 -33.0625 16.2578125 C-33.56022963 19.66001501 -33.58754252 22.85829477 -33.0625 26.2578125 C-28.16990449 32.37355689 -19.88250405 34.380439 -12.78466797 37.14501953 C8.50601397 45.50906414 8.50601397 45.50906414 13.59765625 54.0390625 C16.14403938 60.1563211 15.94295099 67.30556804 14.31640625 73.69921875 C11.20471335 80.76621908 5.06313354 85.6248652 -1.875 88.6953125 C-12.04114504 91.97517214 -25.44745967 92.18928901 -35.12109375 87.39453125 C-35.76175781 87.01941406 -36.40242187 86.64429688 -37.0625 86.2578125 C-38.733125 85.29875 -38.733125 85.29875 -40.4375 84.3203125 C-45.84409405 80.07227431 -49.03098899 74.78391005 -51.0625 68.2578125 C-51.40293064 65.21725395 -51.47583241 62.29343412 -51.0625 59.2578125 C-50.0625 58.2578125 -50.0625 58.2578125 -46.9375 58.125 C-45.65875 58.12757812 -44.38 58.13015625 -43.0625 58.1328125 C-41.78375 58.13023438 -40.505 58.12765625 -39.1875 58.125 C-36.0625 58.2578125 -36.0625 58.2578125 -35.0625 59.2578125 C-34.79328423 60.83799202 -34.54706993 62.42211978 -34.3125 64.0078125 C-33.38990436 68.82734197 -32.06020577 71.21194144 -28.0625 74.2578125 C-22.89510079 77.46751862 -16.92092921 76.82340579 -11.0625 76.2578125 C-6.82405198 75.06069359 -3.93880739 73.64529921 -1.5625 69.8828125 C-0.45150778 64.06291796 -0.45150778 64.06291796 -2.69140625 58.75390625 C-5.43672987 55.86385387 -7.68268751 54.7895718 -11.375 53.3203125 C-11.98311523 53.07144287 -12.59123047 52.82257324 -13.21777344 52.56616211 C-16.44672792 51.25321345 -19.70169961 50.0140722 -22.96484375 48.7890625 C-33.41189931 44.82820612 -43.19982901 40.43351208 -49.12890625 30.46484375 C-51.36127335 25.18749056 -50.80357933 18.91742209 -49.29296875 13.49609375 C-45.92852012 5.73289602 -40.01689644 1.41315577 -32.38671875 -1.90625 C-22.68352857 -4.34630017 -9.02602518 -4.60972 0 0 Z " fill="#184835" transform="translate(825.0625,1079.7421875)"/>
<path d="M0 0 C0.96164062 0.00765381 1.92328125 0.01530762 2.9140625 0.02319336 C11.86378722 0.30211637 18.22501152 2.30670029 25.06640625 8.3359375 C29.90611551 13.49051941 32.28253107 18.96985386 32.3125 26.0625 C32.2196875 28.3209375 32.2196875 28.3209375 32.125 30.625 C27.175 30.625 22.225 30.625 17.125 30.625 C16.898125 29.243125 16.67125 27.86125 16.4375 26.4375 C15.41547063 21.85995999 13.92065512 19.53794462 10.125 16.625 C4.34699784 13.80573343 -1.57845293 13.96137396 -7.875 14.625 C-11.11780301 15.87722994 -13.28327077 17.44154153 -14.875 20.625 C-15.22175203 24.85537473 -15.42719342 27.49431824 -13.5625 31.3125 C-8.34215984 35.8044206 -1.85283059 37.89249249 4.53125 40.28515625 C25.35495641 48.1046262 25.35495641 48.1046262 32.125 57.625 C34.27864435 64.08593305 34.43819976 72.76688116 31.625 79.0625 C27.16506384 86.40642315 20.1828228 91.09964893 11.953125 93.171875 C0.47159757 95.01145674 -10.6618271 94.56480976 -20.875 88.625 C-21.49761719 88.2640625 -22.12023437 87.903125 -22.76171875 87.53125 C-27.48290413 84.20144671 -30.16926285 79.00804061 -31.875 73.625 C-32.25119955 69.58204535 -32.18775021 65.6699027 -31.875 61.625 C-29.56256208 61.59814588 -27.2500373 61.57867159 -24.9375 61.5625 C-23.64972656 61.55089844 -22.36195313 61.53929687 -21.03515625 61.52734375 C-17.875 61.625 -17.875 61.625 -16.875 62.625 C-16.50411153 64.24184194 -16.17756403 65.86899077 -15.875 67.5 C-15.34837663 70.32237213 -14.7849394 72.89518179 -13.875 75.625 C-12.09271064 76.76709817 -12.09271064 76.76709817 -9.875 77.625 C-8.74771484 78.13740234 -8.74771484 78.13740234 -7.59765625 78.66015625 C-1.41561402 80.85092301 5.78845337 80.64325017 11.75 77.875 C14.73364669 76.28875746 15.89859552 74.77277149 17.125 71.625 C17.79145619 67.51287478 17.79145619 67.51287478 17.125 63.625 C12.57183886 58.92543496 7.56052884 56.92683918 1.5 54.6875 C-0.29041904 53.99568807 -2.07949128 53.30038032 -3.8671875 52.6015625 C-4.72795898 52.26543945 -5.58873047 51.92931641 -6.47558594 51.58300781 C-15.69062933 47.9037414 -26.65189738 43.48476729 -30.875 33.8125 C-32.6950624 27.66235452 -32.97002381 21.35965435 -30.3125 15.4375 C-23.53569778 3.74928711 -13.10577023 -0.1553089 0 0 Z " fill="#174734" transform="translate(487.875,1076.375)"/>
<path d="M0 0 C20.13 0 40.26 0 61 0 C61 4.29 61 8.58 61 13 C45.82 13 30.64 13 15 13 C15 21.25 15 29.5 15 38 C18.44759766 37.98259766 18.44759766 37.98259766 21.96484375 37.96484375 C24.18220888 37.95705291 26.39957251 37.95097631 28.61694336 37.94506836 C30.16219766 37.9400286 31.70744716 37.9331968 33.25268555 37.92456055 C35.46925029 37.91247924 37.68575218 37.90676827 39.90234375 37.90234375 C40.5971434 37.89718246 41.29194305 37.89202118 42.00779724 37.88670349 C43.6722933 37.88650723 45.33665499 37.93810871 47 38 C48 39 48 39 48.1328125 41.46875 C48.13023437 42.4690625 48.12765625 43.469375 48.125 44.5 C48.12886719 46.00046875 48.12886719 46.00046875 48.1328125 47.53125 C48 50 48 50 47 51 C44.6243148 51.0883967 42.27791326 51.11530305 39.90234375 51.09765625 C38.83905602 51.09553383 38.83905602 51.09553383 37.75428772 51.09336853 C35.48198288 51.08775443 33.20977525 51.07519963 30.9375 51.0625 C29.40039204 51.05748681 27.86328255 51.05292359 26.32617188 51.04882812 C22.55071333 51.0386297 18.77546596 51.01905732 15 51 C15 59.58 15 68.16 15 77 C30.18 77 45.36 77 61 77 C61 81.62 61 86.24 61 91 C53.19424413 91.02255497 45.38850593 91.04091738 37.58272648 91.05181217 C33.9585404 91.05704002 30.3343777 91.06413587 26.71020508 91.07543945 C23.21540025 91.08627184 19.72061796 91.09227758 16.22579765 91.09487724 C14.23760611 91.09763551 12.24942369 91.10544688 10.26124573 91.11329651 C9.06007614 91.11337204 7.85890656 91.11344757 6.62133789 91.11352539 C5.02582848 91.11685631 5.02582848 91.11685631 3.39808655 91.12025452 C1 91 1 91 0 90 C-0.09519368 87.2001028 -0.12553944 84.42493826 -0.11352539 81.62475586 C-0.11367142 80.74678848 -0.11381744 79.86882111 -0.1139679 78.96424866 C-0.11326844 76.04775565 -0.10547455 73.13132567 -0.09765625 70.21484375 C-0.09579218 68.19845108 -0.09436823 66.18205796 -0.09336853 64.16566467 C-0.08954244 58.84734862 -0.07971139 53.5290597 -0.06866455 48.21075439 C-0.05665825 41.83564566 -0.05204862 35.46052787 -0.04621124 29.08541107 C-0.03649968 19.39025516 -0.01734375 9.69515881 0 0 Z " fill="#164633" transform="translate(265,1078)"/>
<path d="M0 0 C8.84882724 -0.02255318 17.69763552 -0.04091634 26.54648495 -0.05181217 C30.65494285 -0.05704046 34.76338014 -0.06413713 38.87182617 -0.07543945 C42.83346828 -0.08627025 46.79509052 -0.09227724 50.75674629 -0.09487724 C52.27148311 -0.09673114 53.78621879 -0.1003511 55.30094719 -0.10573006 C57.41541813 -0.11294307 59.52980594 -0.11399083 61.64428711 -0.11352539 C62.85007919 -0.115746 64.05587128 -0.11796661 65.29820251 -0.12025452 C68 0 68 0 69 1 C69.09851171 2.83115883 69.12972629 4.66619933 69.125 6.5 C69.12886719 8.00046875 69.12886719 8.00046875 69.1328125 9.53125 C69 12 69 12 68 13 C66.14630389 13.08737645 64.28932459 13.10698153 62.43359375 13.09765625 C61.30888672 13.09443359 60.18417969 13.09121094 59.02539062 13.08789062 C57.84138672 13.07951172 56.65738281 13.07113281 55.4375 13.0625 C54.24962891 13.05798828 53.06175781 13.05347656 51.83789062 13.04882812 C48.89187774 13.03699675 45.94596319 13.02051287 43 13 C43.00444122 13.94769257 43.00888245 14.89538513 43.01345825 15.87179565 C43.05394611 24.78914104 43.08395633 33.70646786 43.10362434 42.6238842 C43.11407566 47.20876766 43.12825935 51.79357711 43.15087891 56.37841797 C43.17255936 60.80042374 43.18455846 65.22235819 43.18975449 69.64441299 C43.19345889 71.33417001 43.20069237 73.02392298 43.21146011 74.71364975 C43.22591143 77.07464889 43.22798064 79.4353507 43.22705078 81.79638672 C43.23424133 82.49985229 43.24143188 83.20331787 43.24884033 83.92810059 C43.22810432 88.77189568 43.22810432 88.77189568 41 91 C37.99609375 91.23046875 37.99609375 91.23046875 34.4375 91.1875 C33.26058594 91.18105469 32.08367188 91.17460938 30.87109375 91.16796875 C28 91 28 91 27 90 C26.90503292 87.59651714 26.87441138 85.22189018 26.88647461 82.81811523 C26.88632858 82.06694427 26.88618256 81.31577332 26.8860321 80.5418396 C26.88673137 78.04739541 26.89452436 75.55302497 26.90234375 73.05859375 C26.90420788 71.33366436 26.90563181 69.60873443 26.90663147 67.88380432 C26.91045703 63.33487497 26.92028762 58.78597733 26.93133545 54.23706055 C26.94154876 49.59879994 26.94612892 44.96053423 26.95117188 40.32226562 C26.96190987 31.21482754 26.97950696 22.10742137 27 13 C18.09 13 9.18 13 0 13 C0 8.71 0 4.42 0 0 Z " fill="#1A4836" transform="translate(530,1078)"/>
<path d="M0 0 C5.2470474 2.92623797 8.48493298 6.04537679 10.25 11.8125 C10.54333133 14.72643924 10.55410679 17.62381003 10.55078125 20.55078125 C10.55506638 21.39037888 10.5593515 22.2299765 10.56376648 23.09501648 C10.56949572 24.86761577 10.57002042 26.64023857 10.56567383 28.4128418 C10.56252256 31.10572104 10.58595974 33.79749147 10.61132812 36.49023438 C10.61360234 38.21874863 10.61430405 39.9472658 10.61328125 41.67578125 C10.622491 42.47188309 10.63170074 43.26798492 10.64118958 44.08821106 C10.59391792 49.88688047 9.86609588 55.7574179 5.93965149 60.34272766 C1.65082073 64.18222122 -2.5085416 65.56344907 -8.125 66.1875 C-13.9622937 65.58364203 -18.14501249 63.49979457 -22.1875 59.25 C-24.3172577 55.92757799 -24.87642235 53.375256 -24.91113281 49.51220703 C-24.92074036 48.647659 -24.9303479 47.78311096 -24.94024658 46.8923645 C-24.94449646 45.96108734 -24.94874634 45.02981018 -24.953125 44.0703125 C-24.95882507 43.10978973 -24.96452515 42.14926697 -24.97039795 41.15963745 C-24.97984458 39.12710674 -24.98638059 37.09456073 -24.99023438 35.06201172 C-24.99994082 31.95643343 -25.03096786 28.85151674 -25.0625 25.74609375 C-25.06903017 23.77083726 -25.07428059 21.79557604 -25.078125 19.8203125 C-25.0904718 18.8930838 -25.1028186 17.9658551 -25.11553955 17.01052856 C-25.0954749 11.18821061 -24.4396323 7.58618331 -20.25 3.265625 C-13.80376861 -1.90478976 -7.79773763 -2.46928358 0 0 Z " fill="#F8F8F5" transform="translate(733.75,1091.1875)"/>
<path d="M0 0 C0.70253906 0.00386719 1.40507812 0.00773438 2.12890625 0.01171875 C2.83144531 0.00785156 3.53398438 0.00398437 4.2578125 0 C9.50229247 0.01010497 9.50229247 0.01010497 10.62890625 1.13671875 C10.729425 3.93124146 10.76506519 6.7010823 10.75830078 9.49609375 C10.7600531 10.37245483 10.76180542 11.24881592 10.76361084 12.1517334 C10.76803057 15.06341502 10.76509094 17.97503645 10.76171875 20.88671875 C10.76239175 22.90071627 10.76336175 24.9147137 10.76461792 26.92871094 C10.76609506 31.1556068 10.76393983 35.38248158 10.75927734 39.609375 C10.75358005 45.04052407 10.75685897 50.47162374 10.76284981 55.902771 C10.76645499 60.06331762 10.76531703 64.22385244 10.76272202 68.38439941 C10.76205263 70.3875733 10.76288158 72.39074824 10.76520157 74.3939209 C10.7677274 77.18842427 10.76388849 79.98284646 10.75830078 82.77734375 C10.76032501 83.6137439 10.76234924 84.45014404 10.76443481 85.31188965 C10.74316867 91.02245633 10.74316867 91.02245633 9.62890625 92.13671875 C7.11754521 92.23646907 4.6398721 92.27554058 2.12890625 92.26171875 C1.42636719 92.26558594 0.72382813 92.26945312 0 92.2734375 C-5.24447997 92.26333253 -5.24447997 92.26333253 -6.37109375 91.13671875 C-6.4716125 88.34219604 -6.50725269 85.5723552 -6.50048828 82.77734375 C-6.5022406 81.90098267 -6.50399292 81.02462158 -6.50579834 80.1217041 C-6.51021807 77.21002248 -6.50727844 74.29840105 -6.50390625 71.38671875 C-6.50457925 69.37272123 -6.50554925 67.3587238 -6.50680542 65.34472656 C-6.50828256 61.1178307 -6.50612733 56.89095592 -6.50146484 52.6640625 C-6.49576755 47.23291343 -6.49904647 41.80181376 -6.50503731 36.3706665 C-6.50864249 32.21011988 -6.50750453 28.04958506 -6.50490952 23.88903809 C-6.50424013 21.8858642 -6.50506908 19.88268926 -6.50738907 17.8795166 C-6.5099149 15.08501323 -6.50607599 12.29059104 -6.50048828 9.49609375 C-6.50251251 8.6596936 -6.50453674 7.82329346 -6.50662231 6.96154785 C-6.48074402 0.01248698 -6.48074402 0.01248698 0 0 Z " fill="#174735" transform="translate(509.37109375,949.86328125)"/>
<path d="M0 0 C5.28 0 10.56 0 16 0 C16.02312215 11.71726788 16.04091443 23.43453037 16.05181217 35.15181637 C16.05704128 40.59202312 16.06413943 46.03221431 16.07543945 51.47241211 C16.08626735 56.71785702 16.09227662 61.96328692 16.09487724 67.20874214 C16.09673167 69.21470946 16.10035262 71.22067592 16.10573006 73.22663689 C16.11293919 76.02602824 16.113991 78.82535679 16.11352539 81.62475586 C16.11712067 82.46272705 16.12071594 83.30069824 16.12442017 84.1640625 C16.11405216 89.88594784 16.11405216 89.88594784 15 91 C12.66839945 91.09909302 10.33370058 91.12970504 8 91.125 C6.72125 91.12757812 5.4425 91.13015625 4.125 91.1328125 C1 91 1 91 0 90 C-0.09519368 87.2001028 -0.12553944 84.42493826 -0.11352539 81.62475586 C-0.11367142 80.74678848 -0.11381744 79.86882111 -0.1139679 78.96424866 C-0.11326844 76.04775565 -0.10547455 73.13132567 -0.09765625 70.21484375 C-0.09579218 68.19845108 -0.09436823 66.18205796 -0.09336853 64.16566467 C-0.08954244 58.84734862 -0.07971139 53.5290597 -0.06866455 48.21075439 C-0.05845238 42.78829312 -0.05387133 37.36582748 -0.04882812 31.94335938 C-0.0380892 21.29556097 -0.02101169 10.64778274 0 0 Z " fill="#1A4C39" transform="translate(424,1078)"/>
<path d="M0 0 C5.754375 -0.0928125 5.754375 -0.0928125 11.625 -0.1875 C13.42251709 -0.22846802 13.42251709 -0.22846802 15.25634766 -0.27026367 C20.88495717 -0.31421503 25.21312123 -0.33821809 30 3 C32.86985359 6.2474659 34.25126393 8.77097319 34.4375 13.0625 C33.85902191 18.26880282 32.02131048 21.64890794 28 25 C24.82212459 26.0592918 22.57411057 26.11458939 19.23828125 26.09765625 C17.72681519 26.09390991 17.72681519 26.09390991 16.18481445 26.09008789 C14.2680188 26.07643188 14.2680188 26.07643188 12.3125 26.0625 C6.2178125 26.0315625 6.2178125 26.0315625 0 26 C0 17.42 0 8.84 0 0 Z " fill="#FBFBF8" transform="translate(629,1091)"/>
<path d="M0 0 C5.4759375 -0.0928125 5.4759375 -0.0928125 11.0625 -0.1875 C12.76805054 -0.22846802 12.76805054 -0.22846802 14.50805664 -0.27026367 C21.01990413 -0.32350339 26.61393743 -0.20348077 31.59375 4.5078125 C33.98797085 8.78025833 34.42998194 12.0755111 33.61328125 16.91796875 C32.5037863 20.6845981 30.51784033 23.04266386 27.22949219 25.11669922 C24.41232421 26.23283082 22.16798945 26.22620397 19.140625 26.1953125 C18.13547852 26.19031738 17.13033203 26.18532227 16.09472656 26.18017578 C14.19158691 26.15286377 14.19158691 26.15286377 12.25 26.125 C8.2075 26.08375 4.165 26.0425 0 26 C0 17.42 0 8.84 0 0 Z " fill="#FBFBF8" transform="translate(199,1091)"/>
<path d="M0 0 C4.95 0 9.9 0 15 0 C15 0.33 15 0.66 15 1 C10.38 1 5.76 1 1 1 C1 30.04 1 59.08 1 89 C5.29 89 9.58 89 14 89 C14 60.62 14 32.24 14 3 C14.66 2.67 15.32 2.34 16 2 C16.02312241 13.45650016 16.04091457 24.91299481 16.05181217 36.36951351 C16.05704122 41.68865213 16.06413927 47.00777484 16.07543945 52.3269043 C16.08626755 57.45563985 16.09227667 62.58436006 16.09487724 67.71310616 C16.09673163 69.67441614 16.10035251 71.63572524 16.10573006 73.59702873 C16.11293946 76.33415447 16.11399099 79.07121597 16.11352539 81.80834961 C16.11712067 82.62761932 16.12071594 83.44688904 16.12442017 84.29098511 C16.11405216 89.88594784 16.11405216 89.88594784 15 91 C12.66839945 91.09909302 10.33370058 91.12970504 8 91.125 C6.72125 91.12757812 5.4425 91.13015625 4.125 91.1328125 C1 91 1 91 0 90 C-0.09519368 87.2001028 -0.12553944 84.42493826 -0.11352539 81.62475586 C-0.11367142 80.74678848 -0.11381744 79.86882111 -0.1139679 78.96424866 C-0.11326844 76.04775565 -0.10547455 73.13132567 -0.09765625 70.21484375 C-0.09579218 68.19845108 -0.09436823 66.18205796 -0.09336853 64.16566467 C-0.08954244 58.84734862 -0.07971139 53.5290597 -0.06866455 48.21075439 C-0.05845238 42.78829312 -0.05387133 37.36582748 -0.04882812 31.94335938 C-0.0380892 21.29556097 -0.02101169 10.64778274 0 0 Z " fill="#092D1D" transform="translate(424,1078)"/>
<path d="M0 0 C1.39456452 0.00667256 2.78911118 0.01863093 4.18359375 0.03515625 C4.89451172 0.03966797 5.60542969 0.04417969 6.33789062 0.04882812 C8.09899388 0.06064761 9.86005411 0.07858362 11.62109375 0.09765625 C11.29109375 1.08765625 10.96109375 2.07765625 10.62109375 3.09765625 C6.66109375 3.09765625 2.70109375 3.09765625 -1.37890625 3.09765625 C-1.37890625 20.25765625 -1.37890625 37.41765625 -1.37890625 55.09765625 C-1.70890625 55.09765625 -2.03890625 55.09765625 -2.37890625 55.09765625 C-2.70890625 66.97765625 -3.03890625 78.85765625 -3.37890625 91.09765625 C-3.70890625 91.09765625 -4.03890625 91.09765625 -4.37890625 91.09765625 C-4.4020284 79.38038837 -4.41982068 67.66312588 -4.43071842 55.94583988 C-4.43594753 50.50563313 -4.44304568 45.06544194 -4.4543457 39.62524414 C-4.4651736 34.37979923 -4.47118287 29.13436933 -4.47378349 23.88891411 C-4.47563792 21.88294679 -4.47925887 19.87698033 -4.48463631 17.87101936 C-4.49184544 15.07162801 -4.49289725 12.27229946 -4.49243164 9.47290039 C-4.49602692 8.6349292 -4.49962219 7.79695801 -4.50332642 6.93359375 C-4.490998 0.12979763 -4.490998 0.12979763 0 0 Z " fill="#406454" transform="translate(507.37890625,949.90234375)"/>
<path d="M0 0 C0.99 0.495 0.99 0.495 2 1 C2 4.3 2 7.6 2 11 C7.61 11 13.22 11 19 11 C19 11.66 19 12.32 19 13 C16.02077407 13.02683987 13.04178705 13.04676037 10.0625 13.0625 C8.78729492 13.07506836 8.78729492 13.07506836 7.48632812 13.08789062 C6.67744141 13.09111328 5.86855469 13.09433594 5.03515625 13.09765625 C4.2862915 13.10289307 3.53742676 13.10812988 2.76586914 13.11352539 C1 13 1 13 0 12 C-0.07244053 9.98035801 -0.08377188 7.95832876 -0.0625 5.9375 C-0.05347656 4.83277344 -0.04445313 3.72804688 -0.03515625 2.58984375 C-0.02355469 1.73519531 -0.01195312 0.88054687 0 0 Z " fill="#365444" transform="translate(372,1121)"/>
<path d="M0 0 C2.32472205 2.85306797 3.7508258 5.54074837 5 9 C5.66 8.01 6.32 7.02 7 6 C7 9.3 7 12.6 7 16 C6.34 16 5.68 16 5 16 C4.1605118 13.89828133 3.32860344 11.79353375 2.5 9.6875 C2.0359375 8.51574219 1.571875 7.34398437 1.09375 6.13671875 C0 3 0 3 0 0 Z " fill="#B8D5BB" transform="translate(470,627)"/>
<path d="M0 0 C0.99 1.32 1.98 2.64 3 4 C2.09021715 7.82108796 1.32708333 8.78194445 -2 11 C-1.34 7.37 -0.68 3.74 0 0 Z " fill="#BFDCC2" transform="translate(508,555)"/>
<path d="M0 0 C0.66 0.33 1.32 0.66 2 1 C-0.97 3.64 -3.94 6.28 -7 9 C-7.66 8.67 -8.32 8.34 -9 8 C-6.03 5.36 -3.06 2.72 0 0 Z " fill="#A7C9AD" transform="translate(512,318)"/>
<path d="M0 0 C0.66 0 1.32 0 2 0 C2 0.66 2 1.32 2 2 C5.3 2.66 8.6 3.32 12 4 C12 4.33 12 4.66 12 5 C6.73946963 5.31563182 3.55426184 4.66590937 -1 2 C-0.67 1.34 -0.34 0.68 0 0 Z " fill="#123723" transform="translate(709,1164)"/>
<path d="M0 0 C0.66 0 1.32 0 2 0 C2 0.66 2 1.32 2 2 C6.455 2.99 6.455 2.99 11 4 C11 4.33 11 4.66 11 5 C6.12335991 5.34833144 3.22949995 4.41685712 -1 2 C-0.67 1.34 -0.34 0.68 0 0 Z " fill="#153826" transform="translate(789,1164)"/>
<path d="M0 0 C0.97687451 3.03916514 1.105817 4.98413546 0 8 C-0.66 8.66 -1.32 9.32 -2 10 C-1.85950482 8.52031676 -1.71245174 7.04125484 -1.5625 5.5625 C-1.48128906 4.73878906 -1.40007813 3.91507812 -1.31640625 3.06640625 C-1 1 -1 1 0 0 Z " fill="#BDD8BF" transform="translate(537,429)"/>
</svg>
